<?xml version="1.0" encoding="utf-8"?>
<!-- Generator: Adobe Illustrator 23.0.3, SVG Export Plug-In . SVG Version: 6.00 Build 0)  -->
<svg version="1.1" id="Layer_1" xmlns="http://www.w3.org/2000/svg" xmlns:xlink="http://www.w3.org/1999/xlink" x="0px" y="0px"
	 viewBox="0 0 100 200" style="enable-background:new 0 0 100 200;" xml:space="preserve">
<path id="Border" style="opacity:0.3;fill:#FFFFFF;" d="M94.65,58.53l-2.2-11.94l-1.52,3.11c-2.64-8.73-6.57-16.19-11.87-22.61
	l-5.65-6.83L72.97,23c-5.83-5.65-13.07-10.59-21.94-14.99l-8.06-4l2.43,8.67C47.12,18.82,48,25.15,48,31.5
	c0,7.41-1.18,14.74-3.5,21.78c-3.52,10.68-9.7,20.48-17.87,28.32c-6.45,6.2-13.89,11.02-22.12,14.35l-3.3,1.33l0.95,3.44
	c0.71,2.59,1.44,5.75,2.29,9.41l0.92,3.96l1.08-0.1c1.71,7.31,4.15,16.74,8.89,28.4l1.1,2.71l0.72-0.06
	c6.23,15.05,14.76,29.8,26,44.99l10.53,14.22l-3.39-17.37c-0.86-4.43-1.3-8.93-1.3-13.39c0-3.04,0.22-6.19,0.65-9.38l0.12-0.86v0
	c2-13.52,7.9-26.04,17.12-36.26c7.46-8.27,16.86-14.7,27.2-18.58l2.53-0.95l0.07-2.7C97.14,85.53,96.96,71.08,94.65,58.53z
	 M92.68,104.68c-11.13,4.18-20.96,10.98-28.77,19.65c-9.65,10.71-16.2,24.25-18.23,39.24c0,0,0,0.01,0,0.01
	c-0.44,3.25-0.68,6.55-0.68,9.92c0,4.84,0.48,9.57,1.38,14.16c-13.85-18.7-21.61-34.16-26.62-46.86c-0.24,0.04-0.48,0.07-0.71,0.09
	c-5.37-13.19-7.71-23.4-9.49-31.22c-0.36,0.05-0.72,0.1-1.08,0.13c-0.92-3.99-1.69-7.34-2.46-10.13
	c8.77-3.54,16.68-8.73,23.39-15.17c8.54-8.21,15.1-18.45,18.9-29.96C50.69,47.28,52,39.55,52,31.5c0-6.9-0.97-13.57-2.75-19.91
	c10.84,5.38,19.83,11.96,26.33,20.27c0.14-0.74,0.27-1.47,0.39-2.22c7.12,8.61,11.46,19.06,13.58,31.93
	c0.39-0.77,0.78-1.54,1.16-2.32C93.05,71.88,93.11,86.84,92.68,104.68z"/>
<path id="Underlayer" style="opacity:0.65;fill:#FFFFFF;" d="M90.71,59.25c-0.38,0.78-0.77,1.55-1.16,2.32
	c-2.12-12.87-6.46-23.32-13.58-31.93c-0.12,0.74-0.25,1.48-0.39,2.22c-6.5-8.3-15.49-14.89-26.33-20.27C51.03,17.93,52,24.6,52,31.5
	c0,8.05-1.31,15.78-3.7,23.03c-3.8,11.51-10.36,21.75-18.9,29.96c-6.71,6.44-14.62,11.63-23.39,15.17c0.77,2.8,1.54,6.15,2.46,10.13
	c0.36-0.03,0.72-0.08,1.08-0.13c1.78,7.82,4.12,18.03,9.49,31.22c0.23-0.02,0.47-0.05,0.71-0.09c5.01,12.71,12.78,28.16,26.62,46.86
	c-0.89-4.58-1.38-9.31-1.38-14.16c0-3.37,0.25-6.67,0.68-9.92c0,0,0-0.01,0-0.01c2.03-14.99,8.58-28.54,18.23-39.24
	c7.81-8.67,17.64-15.47,28.77-19.65C93.11,86.84,93.05,71.88,90.71,59.25z"/>
<g id="Graphic_1_">
	<path style="opacity:0.65;fill:#012E41;" d="M45,173.5c0-3.37,0.25-6.67,0.68-9.92c-4.08-14.43-5.94-26.8-7.15-37.38
		c-7.95,7.44-14.36,11.88-19.54,12.64c4.98,13.07,12.82,29.15,27.38,48.81C45.48,183.07,45,178.34,45,173.5z"/>
	<path style="opacity:0.65;fill:#05F2F2;" d="M64.61,123.54c-0.22-8.93-0.23-16.99-0.43-24.26c-9.66,12.6-18.9,22.8-26.52,29.96
		c1.36,10.43,3.45,22.55,7.74,36.61C47.08,149.57,54.08,134.89,64.61,123.54z"/>
	<path style="opacity:0.65;fill:#05F2F2;" d="M37.66,129.23c-7.68,7.15-13.75,11.26-18.62,11.65c-5.63-13.84-7.93-24.41-9.75-32.36
		c7.64-1.05,16.08-5.6,24.93-12.97C35.42,104.16,35.89,115.17,37.66,129.23z"/>
	<path style="opacity:0.65;fill:#F29F04;" d="M92.68,104.68c0.43-17.84,0.37-32.8-1.96-45.42c-8.11,16.59-18.29,31.41-27.86,43.8
		C63.01,109.7,63.06,117,63.3,125C71.2,116.01,81.26,108.96,92.68,104.68z"/>
	<path style="opacity:0.65;fill:#F29F04;" d="M62.87,103.02c-9.63,12.39-18.65,22.35-25.99,29.21c-2.07-14.35-2.6-25.6-3.74-34.43
		c8.77-7.09,18.06-17.04,25.99-29.21C61.79,77.63,62.59,88.89,62.87,103.02z"/>
	<path style="opacity:0.65;fill:#F29F04;" d="M6.01,99.66c0.77,2.8,1.54,6.15,2.46,10.13c7.51-0.68,15.82-4.89,24.65-11.97
		c-0.69-5.62-1.62-10.25-2.94-14.07C23.31,90.54,15.11,95.98,6.01,99.66z"/>
	<path style="opacity:0.65;fill:#F27405;" d="M89.86,63.52c-8.51,16.46-18.81,31.11-28.31,43.29c-0.27-14.42-0.85-25.93-3.21-35.19
		c8.15-11.96,15.16-26.17,17.64-41.97C83.45,38.68,87.86,49.75,89.86,63.52z"/>
	<path style="opacity:0.65;fill:#F27405;" d="M48.88,52.71C45.14,65.13,38.2,76.16,29.03,84.85c1.36,4.07,2.3,9.07,3.01,15.21
		c8.73-6.79,18.08-16.49,26.29-28.45C56.4,63.85,53.21,57.69,48.88,52.71z"/>
	<path style="opacity:0.65;fill:#A62103;" d="M49.25,11.59C51.03,17.93,52,24.6,52,31.5c0,8.05-1.31,15.79-3.71,23.04
		c4.33,5.22,7.4,11.76,9.17,20.07c8.39-11.74,15.85-25.78,19.11-41.45C70.02,24.24,60.65,17.25,49.25,11.59z"/>
</g>
</svg>
